<svg xmlns="http://www.w3.org/2000/svg" xmlns:xlink="http://www.w3.org/1999/xlink" width="500" zoomAndPan="magnify" viewBox="0 0 375 374.999991" height="500" preserveAspectRatio="xMidYMid meet" version="1.0"><defs><g/></defs><g fill="#ffffff" fill-opacity="1"><g transform="translate(104.978244, 243.545214)"><g><path d="M 10.097656 0 L 102.160156 0 L 103.546875 -22.371094 L 101.367188 -22.769531 C 94.4375 -7.917969 85.726562 -3.167969 66.722656 -3.167969 L 43.160156 -3.167969 C 37.417969 -3.167969 34.25 -6.335938 34.25 -12.078125 L 34.25 -113.445312 C 34.25 -129.679688 36.035156 -134.234375 42.171875 -136.015625 L 42.171875 -138.589844 L 10.097656 -138.589844 L 10.097656 -136.015625 C 16.035156 -134.234375 18.015625 -129.679688 18.015625 -113.445312 L 18.015625 -25.144531 C 18.015625 -8.910156 16.035156 -4.355469 10.097656 -2.574219 Z M 10.097656 0 "/></g></g></g><g fill="#ffffff" fill-opacity="1"><g transform="translate(158.502928, 232.643152)"><g><path d="M 124.375 -107.265625 L 124.375 -105.890625 C 124.175781 -105.890625 123.867188 -105.734375 123.453125 -105.421875 C 123.046875 -105.117188 122.640625 -104.5625 122.234375 -103.75 C 121.828125 -102.9375 121.492188 -101.765625 121.234375 -100.234375 C 120.984375 -98.703125 120.859375 -96.664062 120.859375 -94.125 L 120.859375 -13.140625 C 120.859375 -10.691406 120.984375 -8.675781 121.234375 -7.09375 C 121.492188 -5.519531 121.828125 -4.328125 122.234375 -3.515625 C 122.640625 -2.703125 123.046875 -2.140625 123.453125 -1.828125 C 123.867188 -1.523438 124.175781 -1.375 124.375 -1.375 L 124.375 0 L 106.34375 0 L 106.34375 -1.375 C 106.550781 -1.375 106.859375 -1.523438 107.265625 -1.828125 C 107.671875 -2.140625 108.050781 -2.703125 108.40625 -3.515625 C 108.757812 -4.328125 109.085938 -5.519531 109.390625 -7.09375 C 109.703125 -8.675781 109.859375 -10.691406 109.859375 -13.140625 L 109.859375 -104.0625 L 64.015625 -9.015625 L 68.296875 0 L 56.234375 0 L 11.765625 -92.4375 L 11.765625 -25.0625 C 11.765625 -21.488281 11.96875 -18.25 12.375 -15.34375 C 12.78125 -12.445312 13.265625 -9.953125 13.828125 -7.859375 C 14.390625 -5.773438 15 -4.171875 15.65625 -3.046875 C 16.320312 -1.929688 16.960938 -1.375 17.578125 -1.375 L 17.578125 0 L 4.578125 0 L 4.578125 -1.375 C 5.191406 -1.375 5.828125 -1.929688 6.484375 -3.046875 C 7.148438 -4.171875 7.765625 -5.773438 8.328125 -7.859375 C 8.890625 -9.953125 9.375 -12.445312 9.78125 -15.34375 C 10.1875 -18.25 10.390625 -21.488281 10.390625 -25.0625 L 10.390625 -95.1875 L 4.578125 -107.265625 L 16.65625 -107.265625 L 63.265625 -10.546875 L 109.859375 -107.265625 Z M 124.375 -107.265625 "/></g></g></g></svg>